<?xml version="1.0" standalone="no"?>
<!DOCTYPE svg PUBLIC "-//W3C//DTD SVG 20010904//EN"
 "http://www.w3.org/TR/2001/REC-SVG-20010904/DTD/svg10.dtd">
<svg version="1.0" xmlns="http://www.w3.org/2000/svg"
 width="3160.000000pt" height="3160.000000pt" viewBox="0 0 3160.000000 3160.000000"
 preserveAspectRatio="xMidYMid meet">
<metadata>
Created by potrace 1.14, written by Peter Selinger 2001-2017
</metadata>
<g transform="translate(0.000000,3160.000000) scale(0.100000,-0.100000)"
fill="#000000" stroke="none">
<path d="M22388 26955 c-2 -1 -68 -6 -148 -9 -219 -9 -445 -22 -525 -31 -22
-3 -76 -7 -120 -10 -44 -3 -93 -8 -110 -10 -16 -2 -57 -7 -90 -10 -87 -9 -126
-13 -265 -31 -69 -8 -138 -17 -155 -19 -37 -4 -163 -23 -190 -29 -11 -2 -42
-7 -70 -10 -27 -4 -113 -18 -190 -32 -77 -14 -153 -27 -169 -29 -15 -3 -35 -7
-45 -9 -9 -3 -32 -8 -51 -11 -221 -37 -693 -156 -1055 -266 -297 -91 -696
-235 -975 -352 -14 -6 -27 -11 -30 -12 -13 -4 -130 -56 -335 -150 -79 -35
-429 -208 -480 -237 -22 -12 -76 -42 -120 -67 -44 -25 -93 -52 -110 -61 -25
-13 -211 -122 -279 -163 -250 -152 -644 -421 -836 -571 -337 -262 -470 -373
-755 -630 -93 -84 -475 -463 -581 -576 -426 -456 -789 -909 -1092 -1365 -48
-71 -90 -132 -93 -135 -13 -11 -242 -385 -324 -530 -127 -222 -192 -346 -314
-595 -121 -248 -114 -232 -210 -455 -40 -91 -76 -174 -81 -185 -16 -36 -98
-247 -135 -350 -20 -55 -49 -134 -65 -175 -31 -82 -146 -440 -180 -560 -12
-41 -30 -106 -41 -145 -37 -128 -149 -585 -175 -710 -2 -11 -8 -42 -14 -70
-12 -56 -12 -57 -40 -210 -12 -60 -25 -130 -30 -155 -5 -25 -12 -67 -16 -95
-4 -27 -8 -59 -10 -70 -14 -74 -38 -237 -49 -330 -4 -27 -8 -57 -10 -65 -2 -8
-9 -62 -15 -120 -6 -58 -13 -116 -15 -130 -2 -14 -6 -56 -10 -95 -4 -38 -8
-83 -10 -99 -3 -27 -12 -123 -20 -231 -4 -47 -12 -160 -20 -285 -28 -418 -28
-1275 0 -1625 1 -22 6 -85 10 -140 4 -55 8 -113 11 -130 2 -16 6 -61 9 -100 3
-38 8 -81 10 -95 2 -14 6 -50 10 -80 3 -30 10 -86 15 -125 5 -38 12 -90 15
-115 11 -83 54 -343 90 -535 3 -16 17 -84 30 -150 14 -66 27 -129 29 -140 14
-69 105 -443 117 -480 5 -16 32 -111 59 -209 140 -495 379 -1133 615 -1641 57
-123 269 -548 315 -630 18 -33 44 -80 58 -105 13 -25 47 -85 74 -135 94 -169
416 -695 460 -750 5 -5 19 -26 31 -45 83 -125 321 -456 378 -525 9 -11 80 -99
156 -195 77 -96 153 -190 169 -209 16 -19 45 -53 64 -75 86 -100 302 -339 380
-419 79 -82 377 -379 404 -402 6 -6 74 -66 151 -135 77 -69 169 -150 205 -180
36 -30 67 -57 70 -60 17 -18 205 -171 315 -256 287 -224 523 -389 955 -669 42
-27 294 -175 405 -237 330 -185 684 -360 1030 -508 55 -23 118 -51 140 -60
233 -102 812 -298 1160 -395 151 -42 130 -36 270 -70 61 -14 137 -33 170 -41
33 -8 69 -16 80 -18 11 -2 90 -19 175 -36 85 -18 164 -34 175 -36 11 -2 126
-21 255 -43 129 -22 258 -42 285 -45 28 -3 84 -10 125 -15 41 -5 102 -12 135
-16 33 -3 69 -8 80 -10 11 -2 54 -6 95 -10 41 -3 95 -8 120 -10 25 -2 83 -7
130 -10 47 -3 108 -8 135 -10 330 -26 1156 -26 1565 0 105 7 222 16 260 20 19
2 69 6 111 10 42 3 85 7 95 9 11 2 51 7 89 11 39 4 84 9 100 11 17 2 50 6 75
9 25 3 54 7 65 9 11 2 47 7 80 10 33 4 67 9 75 11 8 2 42 7 75 10 33 4 83 11
110 16 70 14 85 17 127 23 21 3 57 10 80 15 24 6 59 13 78 16 194 32 756 166
921 218 24 8 71 22 104 32 94 27 272 84 364 117 45 17 88 31 95 33 6 1 18 5
26 8 8 3 78 29 155 57 135 50 365 142 449 180 23 10 72 32 109 49 38 17 71 31
74 31 20 0 701 347 783 400 8 5 44 26 80 46 320 179 843 528 1103 734 98 78
371 301 397 325 19 18 85 76 145 130 188 168 513 499 691 705 21 25 41 47 45
50 13 13 203 244 267 327 l71 91 -42 34 c-36 29 -198 152 -622 470 -49 37 -99
74 -110 83 -30 24 -59 46 -185 139 -63 47 -124 93 -135 101 -40 31 -75 57
-365 275 -162 121 -311 233 -330 248 -19 15 -174 131 -344 259 l-309 233 -75
-103 c-90 -122 -223 -292 -267 -341 -6 -6 -48 -56 -95 -111 -133 -157 -152
-177 -375 -400 -246 -247 -276 -275 -455 -424 -274 -228 -635 -482 -875 -616
-27 -15 -90 -50 -140 -78 -150 -83 -395 -204 -501 -245 -27 -11 -74 -31 -104
-45 -123 -56 -488 -182 -680 -236 -305 -84 -666 -159 -945 -196 -27 -3 -61 -8
-75 -10 -14 -2 -54 -6 -90 -10 -36 -3 -78 -7 -95 -9 -33 -4 -154 -16 -225 -21
-287 -23 -899 -23 -1205 -1 -22 2 -89 7 -148 10 -59 4 -116 9 -127 11 -10 2
-50 6 -87 10 -71 6 -79 7 -228 25 -80 10 -292 41 -368 55 -15 3 -55 9 -90 15
-34 6 -82 15 -107 20 -25 5 -56 12 -70 14 -14 2 -43 9 -65 14 -22 6 -53 13
-70 16 -108 19 -499 125 -695 188 -419 135 -933 358 -1269 550 -46 26 -86 48
-88 48 -9 0 -225 135 -395 246 -325 214 -602 431 -918 719 -233 212 -557 557
-784 835 -42 52 -84 104 -93 114 -57 70 -258 347 -348 481 -322 478 -624 1066
-819 1595 -32 85 -62 166 -67 179 -22 52 -148 454 -164 521 -2 8 -22 87 -45
175 -23 88 -55 223 -71 300 -17 77 -32 149 -35 160 -2 11 -7 34 -9 50 -3 17
-12 66 -20 110 -8 44 -17 96 -20 115 -3 19 -10 60 -15 90 -11 63 -28 185 -36
250 -3 25 -7 56 -9 70 -2 14 -7 52 -10 85 -3 33 -8 76 -10 95 -8 60 -15 132
-20 205 -3 39 -7 95 -10 125 -6 84 -16 252 -21 364 -5 113 -5 815 0 916 7 139
18 337 21 370 2 19 6 76 10 125 3 50 7 104 9 120 2 17 7 59 11 95 8 84 10 101
41 345 3 28 8 59 10 70 2 11 6 40 9 65 4 25 10 68 15 95 5 28 12 66 14 85 3
19 8 46 11 60 5 24 8 38 22 120 8 51 10 58 28 140 8 41 20 95 25 120 15 73 17
83 34 156 18 75 24 96 91 344 70 260 227 734 285 865 5 11 30 70 54 130 24 61
58 139 74 175 16 36 39 88 52 115 296 654 770 1396 1236 1936 192 221 248 281
474 509 240 242 414 397 701 623 261 207 677 484 934 622 50 26 110 59 135 73
112 63 394 196 552 263 403 169 900 326 1273 404 44 9 89 19 100 21 34 7 178
33 215 39 19 3 85 14 145 25 61 10 135 22 165 25 30 4 66 8 80 10 14 2 50 6
80 10 30 3 71 8 90 10 70 9 127 14 215 21 50 3 106 8 125 9 267 23 1072 23
1188 0 10 -1 60 -6 112 -10 52 -3 111 -8 130 -10 55 -6 212 -25 241 -30 14 -3
41 -7 60 -9 29 -4 176 -28 244 -41 11 -2 56 -11 100 -20 44 -9 89 -19 100 -21
96 -19 362 -87 465 -119 25 -8 77 -24 115 -35 39 -12 77 -24 85 -27 23 -9 230
-84 275 -100 22 -7 54 -20 70 -27 17 -8 82 -35 145 -62 118 -49 469 -224 540
-269 22 -14 42 -25 45 -25 9 0 270 -164 395 -248 395 -267 691 -525 1125 -976
45 -48 289 -329 315 -364 l23 -31 101 77 c55 42 108 82 116 89 8 7 146 111
305 233 160 121 358 272 440 335 83 63 224 171 315 240 91 69 187 142 214 163
26 20 76 58 110 84 33 26 77 60 97 75 20 15 188 143 372 283 185 140 336 260
337 266 0 5 -8 19 -18 30 -9 10 -46 55 -82 99 -183 227 -291 346 -540 596
-206 206 -251 249 -406 385 -57 51 -220 187 -259 216 -5 4 -35 27 -65 51 -285
225 -663 476 -985 656 -60 34 -121 68 -135 76 -33 20 -515 259 -560 278 -19 8
-60 26 -90 40 -30 14 -111 49 -180 77 -69 29 -138 58 -155 65 -274 114 -802
288 -1173 386 -230 60 -687 163 -829 185 -19 3 -45 7 -56 10 -12 2 -39 6 -62
9 -22 3 -78 12 -125 20 -47 8 -106 16 -132 19 -26 3 -76 10 -110 15 -75 12
-122 18 -203 26 -33 3 -71 8 -85 10 -14 2 -56 6 -95 10 -38 3 -81 7 -95 10
-29 5 -94 10 -415 31 -73 5 -1062 14 -1067 9z"/>
<path d="M3243 19904 c-118 -25 -235 -93 -325 -188 -48 -52 -138 -193 -138
-218 0 -8 -4 -18 -9 -23 -25 -26 -74 -244 -87 -385 -11 -114 -5 -416 11 -511
2 -13 6 -49 10 -80 3 -31 7 -65 9 -75 2 -11 7 -39 11 -64 14 -84 16 -95 41
-220 27 -133 92 -395 123 -495 38 -122 104 -330 108 -342 3 -7 -10 -14 -34
-19 -21 -3 -83 -17 -138 -30 -55 -12 -111 -25 -125 -28 -21 -4 -262 -67 -310
-81 -8 -2 -46 -13 -85 -24 -120 -33 -382 -127 -532 -191 -477 -204 -787 -456
-896 -730 -37 -92 -41 -120 -41 -245 0 -93 5 -122 28 -190 72 -212 267 -418
551 -585 50 -30 60 -40 58 -60 -18 -190 25 -322 143 -436 205 -201 544 -163
720 80 l21 29 64 -18 c127 -34 416 -104 494 -120 44 -9 80 -17 82 -18 1 -2
-20 -72 -48 -157 -48 -151 -144 -495 -155 -555 -2 -16 -7 -37 -9 -45 -2 -8 -7
-30 -10 -49 -3 -19 -8 -37 -10 -40 -2 -4 -6 -26 -10 -51 -4 -25 -8 -47 -10
-50 -1 -3 -6 -25 -9 -50 -3 -25 -8 -56 -10 -70 -10 -57 -26 -179 -31 -230 -3
-30 -8 -77 -11 -105 -8 -64 -7 -310 1 -395 64 -661 439 -950 1010 -779 277 83
674 336 1025 654 84 76 427 420 508 510 l73 80 39 -45 c134 -152 488 -507 593
-595 359 -299 572 -442 820 -549 236 -101 460 -131 627 -82 30 9 57 15 60 15
3 -1 34 14 69 33 118 64 206 153 274 278 38 69 92 219 101 284 4 21 8 48 11
60 3 12 8 35 11 51 4 17 8 133 9 258 2 126 5 229 7 230 176 95 270 243 269
427 0 137 -58 264 -164 360 -45 41 -148 90 -218 103 l-60 12 -20 70 c-27 92
-117 387 -124 406 -4 11 12 19 72 32 84 19 114 25 153 33 14 3 86 21 160 40
74 19 144 37 155 39 87 19 494 155 582 196 24 10 45 19 47 19 2 0 19 6 37 14
19 8 37 15 41 16 26 4 328 166 401 213 99 65 242 182 303 248 171 185 242 410
198 625 -16 78 -89 231 -134 284 -17 19 -51 58 -75 87 -103 119 -323 271 -560
388 -336 165 -781 310 -1255 410 -69 15 -126 28 -127 29 -3 3 1 17 47 161 92
292 179 631 204 799 4 21 8 41 10 45 2 3 7 31 10 61 4 30 11 82 16 115 9 55
17 133 26 245 5 67 4 275 -1 355 -25 341 -143 597 -338 731 -113 78 -212 108
-362 108 -185 2 -309 -29 -527 -131 l-98 -46 -37 25 c-176 116 -425 91 -576
-57 -79 -77 -112 -133 -137 -234 -16 -60 -14 -180 4 -230 l14 -41 -207 -208
c-114 -114 -240 -243 -279 -287 l-72 -80 -87 95 c-188 206 -471 479 -653 631
-342 284 -654 465 -928 535 -117 31 -293 39 -389 18z m322 -295 c92 -23 123
-36 260 -103 341 -168 748 -510 1200 -1006 97 -107 92 -95 59 -133 -16 -18
-42 -51 -59 -72 -16 -21 -42 -52 -56 -69 -52 -62 -297 -396 -418 -570 -68 -98
-129 -179 -135 -181 -6 -2 -58 -6 -116 -10 -110 -7 -126 -8 -230 -19 -36 -4
-87 -9 -115 -11 -27 -3 -66 -7 -85 -10 -19 -3 -60 -7 -90 -10 -30 -3 -66 -7
-80 -10 -14 -2 -50 -6 -80 -10 -30 -3 -110 -15 -178 -26 -67 -10 -131 -19
-142 -19 -16 0 -28 27 -74 173 -58 179 -90 294 -132 462 -13 55 -29 116 -34
135 -11 45 -60 320 -66 374 -2 23 -6 55 -9 71 -25 165 -26 464 -1 600 3 17 8
48 12 70 9 58 56 176 95 236 55 86 152 149 249 161 50 7 147 -3 225 -23z
m3745 10 c82 -19 145 -67 200 -151 37 -56 85 -184 96 -256 3 -19 7 -44 9 -55
36 -184 16 -567 -46 -880 -10 -53 -21 -110 -24 -125 -3 -15 -17 -72 -30 -127
-14 -55 -28 -111 -31 -125 -9 -43 -73 -259 -121 -407 -53 -163 -38 -152 -168
-129 -44 8 -105 17 -135 20 -30 4 -66 9 -80 11 -14 2 -50 7 -80 11 -30 3 -66
8 -80 9 -14 2 -54 7 -90 10 -36 4 -76 8 -90 10 -14 2 -61 7 -105 11 -44 3 -88
8 -97 10 -14 2 -224 17 -254 17 -6 0 -62 75 -125 166 -95 138 -229 326 -262
366 -4 6 -49 64 -99 130 -50 66 -118 153 -150 193 l-60 72 27 33 c76 90 206
228 353 374 l164 162 51 -25 c82 -42 136 -54 227 -53 168 3 303 79 393 220 63
100 87 227 64 346 l-9 42 86 40 c96 46 207 81 281 88 28 3 51 6 53 8 5 4 88
-5 132 -16z m-1953 -1511 c132 -164 453 -597 453 -612 0 -2 -44 -2 -97 0 -121
5 -811 5 -875 0 -27 -2 -48 -2 -48 1 0 2 19 31 43 65 23 33 49 70 57 82 56 82
399 533 407 535 1 1 28 -32 60 -71z m552 -902 c58 -4 105 -7 106 -9 232 -358
433 -702 628 -1076 l80 -155 -61 -120 c-35 -67 -81 -155 -103 -196 -23 -41
-54 -97 -69 -125 -120 -220 -297 -515 -417 -700 -29 -44 -54 -83 -55 -87 -5
-14 -291 -22 -733 -22 -379 0 -692 8 -701 16 -8 9 -220 351 -277 448 -38 63
-72 122 -77 130 -5 8 -48 85 -95 170 -47 85 -90 162 -95 170 -5 8 -44 83 -87
167 l-78 151 39 74 c49 93 109 205 154 288 19 36 39 72 43 80 4 8 56 98 115
200 103 180 134 231 199 335 18 28 60 95 95 150 34 55 64 101 65 103 1 1 83 5
181 8 98 3 180 7 182 9 5 5 853 -4 961 -9z m-1756 -163 c-128 -205 -252 -420
-367 -635 -32 -59 -60 -110 -64 -112 -7 -4 -97 190 -190 409 -30 72 -63 149
-73 172 -11 24 -19 46 -19 49 0 3 -7 22 -16 42 -47 109 -45 100 -21 105 22 6
196 32 272 41 22 3 56 8 75 10 19 3 56 8 83 11 26 3 66 7 90 10 62 7 132 14
217 21 41 3 77 8 79 10 2 2 6 2 9 0 2 -3 -32 -63 -75 -133z m2429 113 c18 -3
58 -7 88 -11 30 -3 69 -7 85 -10 17 -2 53 -7 80 -10 28 -3 61 -7 75 -9 14 -3
52 -7 85 -11 32 -4 62 -8 65 -10 7 -4 112 -17 133 -17 16 1 18 -4 12 -26 -10
-39 -108 -284 -155 -387 -5 -11 -43 -96 -85 -189 -41 -94 -78 -173 -83 -178
-4 -4 -23 20 -40 54 -39 75 -98 186 -134 248 -14 25 -45 79 -68 120 -45 78
-224 377 -256 425 l-18 27 91 -6 c50 -3 106 -8 125 -10z m-3398 -359 c49 -122
99 -244 111 -272 128 -282 174 -383 211 -458 24 -49 44 -95 44 -102 0 -8 -26
-67 -58 -132 -32 -65 -82 -172 -111 -238 -30 -66 -67 -148 -83 -183 -15 -34
-28 -65 -28 -67 0 -3 -8 -24 -19 -48 -10 -23 -26 -62 -36 -87 -10 -25 -27 -64
-37 -87 -10 -23 -18 -47 -18 -53 0 -5 -4 -18 -9 -28 -16 -30 -41 -90 -41 -99
-1 -29 -17 -33 -86 -18 -39 8 -88 17 -110 21 -21 3 -42 8 -45 10 -3 2 -20 6
-38 9 -87 15 -402 103 -415 115 -5 5 -9 17 -10 27 -12 114 -113 261 -228 330
-80 48 -144 63 -256 60 -103 -3 -169 -25 -253 -83 l-37 -25 -33 19 c-61 35
-114 66 -124 74 -5 5 -39 30 -75 57 -156 115 -247 233 -275 356 -30 129 22
259 158 395 199 200 524 369 1022 530 187 60 557 156 720 186 16 3 30 6 32 7
1 2 10 3 21 4 15 1 34 -38 106 -220z m4376 212 c25 -6 56 -13 70 -15 14 -3 33
-7 42 -10 10 -3 30 -7 45 -10 16 -3 36 -7 45 -10 17 -5 45 -11 88 -20 14 -3
84 -21 155 -40 617 -166 1070 -376 1305 -607 146 -143 201 -297 156 -434 -105
-317 -678 -638 -1526 -854 -138 -36 -195 -49 -280 -65 -14 -3 -54 -12 -88 -20
-66 -15 -82 -13 -82 12 0 8 -4 22 -9 32 -5 9 -35 82 -66 162 -54 136 -93 230
-135 325 -10 22 -36 81 -58 130 -22 50 -70 153 -107 230 -37 77 -68 145 -68
150 0 6 35 82 77 170 42 88 81 169 85 180 5 11 21 47 36 80 48 105 140 325
200 478 32 81 61 147 64 147 3 0 26 -5 51 -11z m-3807 -1421 c44 -88 119 -225
234 -428 11 -19 70 -117 131 -217 61 -101 108 -184 104 -184 -10 -2 -137 8
-197 16 -17 2 -59 6 -95 10 -36 4 -78 9 -95 11 -16 2 -52 6 -80 9 -27 3 -59 7
-70 9 -11 2 -49 8 -85 12 -36 4 -67 9 -70 9 -19 5 -126 19 -132 17 -5 -1 -8 4
-8 12 0 20 125 331 208 516 106 237 117 260 122 260 3 0 18 -24 33 -52z m3176
-46 c24 -53 80 -180 123 -282 43 -102 83 -194 87 -205 5 -11 24 -58 42 -103
26 -69 30 -85 18 -93 -8 -5 -17 -9 -20 -9 -3 0 -55 -7 -115 -15 -189 -26 -263
-36 -384 -49 -65 -8 -119 -13 -215 -22 -38 -3 -74 -7 -80 -8 -5 0 -9 4 -8 9 1
8 106 184 193 325 43 69 238 420 282 508 12 23 24 42 27 42 4 0 26 -44 50 -98z
m-3515 -978 c23 -4 73 -11 131 -19 53 -6 112 -14 155 -20 19 -3 55 -7 80 -10
55 -6 133 -15 180 -20 19 -3 67 -7 105 -11 39 -3 84 -8 100 -9 17 -2 77 -7
135 -10 107 -7 145 -20 157 -53 4 -9 9 -19 13 -22 3 -3 52 -72 109 -155 92
-133 385 -532 401 -545 3 -3 34 -40 69 -83 70 -86 70 -74 1 -151 -180 -202
-481 -499 -620 -612 -19 -16 -37 -31 -40 -35 -34 -39 -339 -260 -444 -321 -86
-50 -248 -125 -316 -148 -69 -23 -221 -50 -255 -45 -11 2 -39 6 -63 9 -153 22
-283 189 -318 406 -3 19 -8 38 -10 42 -6 10 -17 200 -17 293 0 355 94 846 264
1379 l50 158 57 -7 c31 -4 65 -9 76 -11z m3919 -31 c35 -101 137 -441 137
-457 0 -1 -20 -17 -45 -35 -44 -31 -107 -108 -132 -161 -39 -78 -47 -122 -46
-227 2 -195 129 -368 317 -431 31 -11 59 -21 62 -24 9 -10 5 -309 -6 -388 -16
-118 -20 -139 -45 -212 -48 -143 -129 -239 -232 -278 -212 -79 -563 50 -978
362 -56 42 -276 228 -335 283 -175 164 -447 445 -528 547 -12 15 -7 26 46 90
32 40 83 105 113 143 29 39 57 75 62 80 48 57 387 534 422 592 22 37 33 40
165 48 52 3 115 8 140 11 63 6 125 13 195 19 33 3 71 8 85 10 14 2 54 7 90 10
36 4 74 9 85 11 11 2 44 6 75 9 31 3 66 7 79 10 14 2 45 7 70 10 25 4 64 9 86
13 96 18 99 17 118 -35z m-2018 -102 c193 0 383 2 423 4 l72 4 -16 -29 c-51
-86 -480 -659 -494 -659 -6 0 -44 48 -207 263 -67 89 -126 166 -130 171 -18
21 -173 243 -173 248 0 2 39 3 88 1 48 -2 245 -3 437 -3z"/>
<path d="M5140 16609 c-198 -51 -348 -173 -436 -354 -23 -49 -45 -101 -48
-115 -3 -14 -9 -45 -13 -70 -13 -67 -8 -186 12 -265 16 -65 70 -187 98 -222
95 -120 217 -209 342 -250 113 -37 285 -39 395 -5 407 126 595 592 389 961
-84 150 -213 253 -394 316 -76 26 -250 28 -345 4z"/>
<path d="M1150 1000 l0 -200 14800 0 14800 0 0 200 0 200 -14800 0 -14800 0 0
-200z"/>
</g>
</svg>
