
        <svg xmlns="http://www.w3.org/2000/svg" xmlns:xlink="http://www.w3.org/1999/xlink" version="1.1" width="3154.069612754063" 
        height="3160" viewBox="-32 0 3154.069612754063 3160">
			
			<g transform="scale(8) translate(10, 10)">
				<defs id="SvgjsDefs6926"></defs><g id="SvgjsG6927" featureKey="rootContainer" transform="matrix(1,0,0,1,0,0)" fill="#ecb365"><rect y="0" height="1" width="1" opacity="0"></rect><rect y="370" width="370" height="5"></rect></g><g id="SvgjsG6928" featureKey="HKaMnE-0" transform="matrix(1.241569982286023,0,0,1.241569982286023,-10.207849911430117,123.3608183854846)" fill="#ecb365"><g xmlns="http://www.w3.org/2000/svg"><path d="M81.245,38.696c-2.478-0.799-5.2-1.489-8.103-2.069c0.946-2.795,1.725-5.499,2.27-8.037   c1.986-9.242,0.979-15.316-2.911-17.561c-0.974-0.564-2.095-0.849-3.331-0.849c-1.828,0-3.906,0.645-6.151,1.85   c-0.81-0.629-1.816-1.019-2.922-1.019c-2.643,0-4.786,2.141-4.786,4.785c0,0.59,0.121,1.149,0.317,1.672   C53.786,19.145,51.9,21.081,50,23.245C42.858,15.11,35.889,10.182,30.83,10.182c-1.235,0-2.356,0.284-3.331,0.848   c-3.889,2.246-4.896,8.32-2.911,17.561c0.545,2.538,1.324,5.242,2.27,8.037c-2.903,0.579-5.624,1.269-8.101,2.068   C9.756,41.6,5,45.507,5,50c0,3.084,2.242,5.893,6.558,8.289c-0.091,0.369-0.153,0.749-0.153,1.146c0,2.642,2.144,4.785,4.789,4.785   c1.783,0,3.32-0.987,4.143-2.432c2.038,0.597,4.223,1.124,6.521,1.583c-0.946,2.795-1.725,5.499-2.27,8.036   c-1.984,9.245-0.977,15.317,2.913,17.564c0.975,0.561,2.094,0.847,3.329,0.847c5.06,0,12.028-4.928,19.171-13.064   C57.143,84.891,64.111,89.82,69.17,89.82c1.236,0,2.355-0.287,3.329-0.847c2.963-1.711,4.249-5.646,3.82-11.504   c1.661-0.752,2.821-2.414,2.821-4.354c0-2.537-1.977-4.59-4.471-4.756c-0.43-1.614-0.951-3.284-1.527-4.986   c2.904-0.58,5.625-1.27,8.103-2.069C90.244,58.401,95,54.493,95,50C95,45.507,90.244,41.6,81.245,38.696z M57.406,19.755   c0.767,0.523,1.693,0.831,2.692,0.831c2.645,0,4.788-2.144,4.788-4.788c0-0.481-0.092-0.935-0.224-1.373   c1.738-0.904,3.266-1.37,4.509-1.37c0.735,0,1.354,0.15,1.895,0.462c2.589,1.497,3.165,6.907,1.539,14.474   c-0.548,2.553-1.344,5.285-2.317,8.115c-3.623-0.607-7.487-1.05-11.506-1.311c-2.262-3.394-4.58-6.525-6.897-9.335   C53.786,23.275,55.639,21.372,57.406,19.755z M60.926,56.309c-1.24,2.148-2.494,4.183-3.75,6.116   c-2.313,0.125-4.706,0.193-7.177,0.193c-2.471,0-4.863-0.068-7.175-0.193c-1.256-1.933-2.51-3.967-3.75-6.116   c-1.218-2.109-2.346-4.221-3.413-6.322c1.046-2.06,2.181-4.161,3.413-6.296c1.24-2.148,2.494-4.183,3.75-6.116   c2.312-0.125,4.704-0.193,7.175-0.193c2.471,0,4.865,0.068,7.177,0.193c1.256,1.933,2.51,3.967,3.75,6.116   c1.232,2.135,2.367,4.236,3.413,6.296C63.273,52.088,62.144,54.2,60.926,56.309z M65.914,53.2c1.299,2.751,2.425,5.408,3.384,7.943   c-2.672,0.436-5.533,0.789-8.561,1.04c0.905-1.441,1.8-2.919,2.677-4.438C64.288,56.23,65.114,54.714,65.914,53.2z M55.19,65.388   c-1.742,2.519-3.481,4.832-5.19,6.924c-1.709-2.092-3.448-4.404-5.19-6.924c1.711,0.065,3.441,0.101,5.189,0.101   C51.748,65.489,53.479,65.453,55.19,65.388z M39.264,62.182c-3.028-0.251-5.89-0.603-8.562-1.04   c0.959-2.535,2.086-5.192,3.385-7.943c0.8,1.515,1.626,3.031,2.501,4.545C37.464,59.263,38.359,60.741,39.264,62.182z    M34.094,46.786c-1.272-2.693-2.41-5.347-3.39-7.929c2.672-0.436,5.532-0.789,8.559-1.039c-0.905,1.441-1.8,2.919-2.677,4.438   C35.716,43.765,34.892,45.276,34.094,46.786z M44.81,34.612c1.742-2.519,3.481-4.832,5.19-6.924   c1.709,2.092,3.448,4.405,5.19,6.924c-1.712-0.065-3.443-0.101-5.192-0.101C48.251,34.511,46.521,34.548,44.81,34.612z    M63.414,42.255c-0.877-1.519-1.771-2.996-2.677-4.438c3.027,0.251,5.887,0.603,8.558,1.039c-0.98,2.582-2.117,5.236-3.389,7.929   C65.109,45.276,64.286,43.765,63.414,42.255z M27.397,27.99c-1.626-7.567-1.05-12.977,1.539-14.474   c0.54-0.312,1.161-0.462,1.894-0.462c3.791,0,10.195,4.269,17.287,12.404c-2.316,2.81-4.634,5.941-6.896,9.335   c-4.02,0.261-7.884,0.704-11.507,1.311C28.742,33.275,27.945,30.543,27.397,27.99z M20.932,58.951   c-0.245-2.415-2.26-4.306-4.738-4.306c-1.191,0-2.266,0.451-3.104,1.17C9.732,53.974,7.872,51.951,7.872,50   c0-3.955,7.603-8.207,19.953-10.627c1.286,3.444,2.831,7.012,4.616,10.627c-1.785,3.615-3.33,7.182-4.616,10.627   C25.326,60.137,23.018,59.573,20.932,58.951z M30.83,86.946c-0.733,0-1.354-0.151-1.894-0.463   c-3.424-1.977-3.305-10.685,0.774-22.589c3.625,0.608,7.49,1.051,11.512,1.313c2.262,3.394,4.58,6.525,6.896,9.335   C41.024,82.677,34.62,86.946,30.83,86.946z M71.867,69.038c-1.376,0.841-2.302,2.344-2.302,4.076c0,2.329,1.664,4.266,3.868,4.694   c0.307,4.509-0.502,7.597-2.37,8.675c-0.54,0.312-1.158,0.463-1.893,0.463c-3.789,0-10.193-4.269-17.286-12.404   c2.317-2.81,4.634-5.942,6.897-9.335c4.021-0.262,7.886-0.705,11.51-1.313C70.904,65.684,71.431,67.405,71.867,69.038z    M72.174,60.627c-1.286-3.444-2.83-7.012-4.615-10.627c1.785-3.615,3.329-7.183,4.615-10.627   C84.525,41.793,92.129,46.045,92.129,50C92.129,53.955,84.525,58.207,72.174,60.627z"></path><circle cx="50" cy="50" r="6.703"></circle></g></g><g id="SvgjsG6929" featureKey="J3GnXt-0" transform="matrix(18.849581732526076,0,0,18.849581732526076,114.28141905738673,-55.29533973834968)" fill="#ecb365"><path d="M8.32 5.48 c1 0 1.9367 0.18664 2.81 0.55998 s1.59 0.92 2.15 1.64 l-1.6 1.22 c-0.86666 -1.08 -2.0066 -1.62 -3.42 -1.62 c-1.5333 0 -2.7966 0.54666 -3.79 1.64 s-1.49 2.4666 -1.49 4.12 c0 1.6 0.49 2.92 1.47 3.96 s2.25 1.56 3.81 1.56 s2.7934 -0.63334 3.7 -1.9 l1.62 1.22 c-0.56 0.74666 -1.3067 1.3467 -2.24 1.8 s-1.9733 0.68 -3.12 0.68 c-1.36 0 -2.5934 -0.33 -3.7 -0.99 s-1.98 -1.5667 -2.62 -2.72 s-0.96 -2.3634 -0.96 -3.63 c0 -2.1866 0.68666 -3.99 2.06 -5.41 s3.1466 -2.13 5.32 -2.13 z"></path></g>
			</g>
		</svg>
	